<svg width="380" height="286" viewBox="0 0 380 286" fill="none" xmlns="http://www.w3.org/2000/svg">
<path d="M374 151.5C374 74.6729 292.283 5.49991 189.5 5.49991C86.4792 5.49991 5.5 69.8604 5.5 146.5C5.5 166.041 9.15053 184.218 17.8416 200.461C26.5171 216.675 40.3853 231.283 61.3275 243.462C102.486 267.397 170.778 281.836 279.331 280.144C277.42 273.203 277.207 267.004 278.677 261.399C280.665 253.821 285.497 248.216 291.349 243.759C297.122 239.363 304.268 235.801 311.434 232.43C312.88 231.75 314.329 231.076 315.778 230.403C321.683 227.659 327.593 224.912 333.308 221.704C356.537 208.664 374 186.232 374 151.5Z" fill="white" stroke="black" stroke-width="11"/>
<path d="M123.676 106.964C117.266 110.703 117.362 117.347 119.635 121.05C122.594 125.681 128.636 127.364 133.881 123.802C136.266 132.831 132.13 146.438 120.337 152.967C107.863 159.846 92.2851 156.272 84.1174 144.649C75.9497 133.025 78.0077 116.944 88.8481 107.739C99.9461 98.365 114.832 99.7327 123.676 106.964Z" fill="black"/>
<path d="M290.904 106.964C284.494 110.703 284.59 117.347 286.862 121.05C289.821 125.681 295.864 127.363 301.109 123.802C303.494 132.831 299.358 146.438 287.565 152.967C275.091 159.846 259.513 156.272 251.345 144.649C243.178 133.025 245.236 116.944 256.076 107.739C267.22 98.2851 282.06 99.7325 290.904 106.964Z" fill="black"/>
<path d="M277.208 174.099C269.61 174.102 263.284 176.78 263.129 180.056C262.973 183.332 269.045 186.006 276.644 186.003C284.243 186.001 290.569 183.322 290.724 180.046C290.963 176.69 284.891 174.016 277.208 174.099Z" fill="#FFCE1F"/>
<path d="M102.534 173.926C110.752 174.087 117.352 177.116 117.223 180.661C117.094 184.206 110.284 186.972 102.065 186.811C93.8461 186.65 87.2466 183.622 87.3756 180.077C87.4212 176.443 94.2314 173.677 102.534 173.926Z" fill="#FFCE1F"/>
<path d="M166 189.731V189.731C179.384 201.692 199.616 201.692 213 189.731V189.731" stroke="black" stroke-width="6" stroke-linecap="round"/>
</svg>
