<svg width="589" height="279" viewBox="0 0 589 279" fill="none" xmlns="http://www.w3.org/2000/svg">
<path d="M43.2343 189.062L43.2751 189.099L43.3162 189.134C54.3151 198.657 68.9639 202.777 85.9445 202.777H106.594C110.311 202.777 113.597 200.934 115.588 198.111C117.58 200.934 120.866 202.777 124.583 202.777H230.334C236.409 202.777 241.334 197.852 241.334 191.777V158.674C241.334 152.599 236.409 147.674 230.334 147.674H192.622L237.5 94.4415C239.172 92.4576 240.089 89.9463 240.089 87.3514V54.8583C240.089 48.7832 235.165 43.8583 229.089 43.8583H125.08C121.121 43.8583 117.65 45.9502 115.713 49.0891C113.776 45.9502 110.305 43.8583 106.345 43.8583H89.4745V21C89.4745 14.9248 84.5496 10 78.4745 10H37.9216C31.8465 10 26.9216 14.9249 26.9216 21V43.8583H21C14.9249 43.8583 10 48.7832 10 54.8583V88.2104C10 94.2856 14.9249 99.2104 21 99.2104H26.9216V144.479C26.9216 163.036 31.5988 178.765 43.2343 189.062ZM160.097 98.9615L116.146 152.219C114.25 148.909 110.683 146.678 106.594 146.678H92.4146C91.095 146.678 90.1698 146.575 89.561 146.459C89.5132 146.104 89.4745 145.619 89.4745 144.977V99.2104H106.345C110.358 99.2104 113.868 97.0623 115.79 93.8533C117.741 96.9239 121.173 98.9615 125.08 98.9615H160.097ZM88.7767 146.245C88.7767 146.245 88.7787 146.246 88.7826 146.248C88.7786 146.246 88.7767 146.245 88.7767 146.245ZM336.116 197.737L336.156 197.717L336.195 197.697C337.495 197.033 338.761 196.334 339.993 195.601C341.547 199.791 345.58 202.777 350.311 202.777H390.863C396.939 202.777 401.863 197.852 401.863 191.777V54.8583C401.863 48.7832 396.939 43.8583 390.863 43.8583H350.311C344.235 43.8583 339.311 48.7832 339.311 54.8583V129.293C339.311 136.883 337.374 141.359 334.79 144.122C332.206 146.885 328.496 148.67 322.435 148.67C316.608 148.67 312.952 146.927 310.329 144.122C307.745 141.359 305.808 136.883 305.808 129.293V54.8583C305.808 48.7832 300.884 43.8583 294.808 43.8583H254.504C248.429 43.8583 243.504 48.7832 243.504 54.8583V135.019C243.504 148.366 245.975 160.496 251.278 171.107C256.562 181.68 264.156 190.052 274.041 195.905L274.106 195.944L274.173 195.981C284.006 201.603 295.134 204.271 307.255 204.271C317.613 204.271 327.296 202.149 336.116 197.737ZM474.982 258V196.209C475.761 196.677 476.555 197.131 477.362 197.572L477.403 197.594L477.445 197.616C486.547 202.473 496.747 204.769 507.784 204.769C521.017 204.769 533.238 201.383 544.191 194.534L544.245 194.5L544.299 194.466C555.243 187.427 563.709 177.611 569.746 165.355C576.012 152.807 579 138.627 579 123.069C579 107.527 576.018 93.4137 569.733 81.005C563.687 68.7414 555.194 58.9813 544.191 52.1013C533.238 45.2526 521.017 41.8667 507.784 41.8667C496.619 41.8667 486.371 44.1473 477.362 49.0636C476.297 49.6447 475.257 50.2506 474.241 50.8814C472.647 46.7719 468.655 43.8583 463.982 43.8583H423.429C417.354 43.8583 412.429 48.7833 412.429 54.8583V258C412.429 264.075 417.354 269 423.429 269H463.982C470.057 269 474.982 264.075 474.982 258ZM509.571 105.144L509.669 105.242C513.314 108.888 515.701 114.379 515.701 123.069C515.701 131.701 513.339 137.487 509.525 141.54C505.421 145.738 500.793 147.674 495.092 147.674C489.393 147.674 484.766 145.739 480.662 141.543C477.059 137.704 474.733 132.033 474.733 123.318C474.733 114.602 477.059 108.931 480.662 105.093C484.766 100.897 489.393 98.9615 495.092 98.9615C501.034 98.9615 505.602 100.946 509.476 105.043L509.571 105.144Z" fill="#FFCE1F" stroke="black" stroke-width="20"/>
</svg>
